<svg xmlns="http://www.w3.org/2000/svg" width="256" height="256" viewBox="0 0 256 256" fill="none">

<defs>
  <linearGradient id="g" x1="0" y1="0" x2="1" y2="0">
    <stop offset="0%" stop-color="#6E3AFF"/>
    <stop offset="100%" stop-color="#21D07A"/>
  </linearGradient>
</defs><path d="M 128.0 15.36 C 97.28 35.84, 97.28 35.84, 128.0 97.28 S 158.72 35.84, 128.0 15.36 Z" fill="url(#g)" transform="rotate(0 128.0 128.0)"/>
<path d="M 128.0 15.36 C 97.28 35.84, 97.28 35.84, 128.0 97.28 S 158.72 35.84, 128.0 15.36 Z" fill="url(#g)" transform="rotate(90 128.0 128.0)"/>
<path d="M 128.0 15.36 C 97.28 35.84, 97.28 35.84, 128.0 97.28 S 158.72 35.84, 128.0 15.36 Z" fill="url(#g)" transform="rotate(180 128.0 128.0)"/>
<path d="M 128.0 15.36 C 97.28 35.84, 97.28 35.84, 128.0 97.28 S 158.72 35.84, 128.0 15.36 Z" fill="url(#g)" transform="rotate(270 128.0 128.0)"/>

</svg>